<?xml version="1.0" encoding="UTF-8" standalone="no"?>
<!-- Created with Inkscape (http://www.inkscape.org/) -->

<svg
   width="128"
   height="128"
   viewBox="0 0 128 128"
   version="1.1"
   id="svg1"
   xml:space="preserve"
   sodipodi:docname="VolMonLogo.svg"
   inkscape:version="1.4.3 (0d15f75042, 2025-12-25)"
   inkscape:export-filename="VolMonLogo-256.png"
   inkscape:export-xdpi="192"
   inkscape:export-ydpi="192"
   xmlns:inkscape="http://www.inkscape.org/namespaces/inkscape"
   xmlns:sodipodi="http://sodipodi.sourceforge.net/DTD/sodipodi-0.dtd"
   xmlns="http://www.w3.org/2000/svg"
   xmlns:svg="http://www.w3.org/2000/svg"><sodipodi:namedview
     id="namedview1"
     pagecolor="#505050"
     bordercolor="#ffffff"
     borderopacity="1"
     inkscape:showpageshadow="0"
     inkscape:pageopacity="0"
     inkscape:pagecheckerboard="1"
     inkscape:deskcolor="#505050"
     inkscape:document-units="px"
     inkscape:zoom="4.2532751"
     inkscape:cx="39.146304"
     inkscape:cy="81.584188"
     inkscape:window-width="1920"
     inkscape:window-height="1052"
     inkscape:window-x="0"
     inkscape:window-y="0"
     inkscape:window-maximized="1"
     inkscape:current-layer="layer1"
     showguides="false"
     showgrid="false"><inkscape:grid
       id="grid4"
       units="px"
       originx="0"
       originy="0"
       spacingx="0.26458333"
       spacingy="0.26458334"
       empcolor="#0099e5"
       empopacity="0.30196078"
       color="#0099e5"
       opacity="0.14901961"
       empspacing="5"
       enabled="true"
       visible="false" /></sodipodi:namedview><defs
     id="defs1" /><g
     inkscape:groupmode="layer"
     id="layer2"
     inkscape:label="BG"><circle
       style="fill:#800000;stroke-width:1.284"
       id="path2"
       cx="64"
       cy="64"
       r="64" /></g><g
     inkscape:label="Head"
     inkscape:groupmode="layer"
     id="layer1"
     style="opacity:1"
     transform="translate(-74.074055,-32.19846)"><path
       style="fill:#000000;stroke-width:1.01081"
       d="m 126.60219,146.15707 c 20.16578,10.41899 20.50186,10.08287 20.50186,10.08287 l 19.49357,-26.88767 9.41069,3.69705 3.69707,-4.36925 -0.33608,-20.83796 c 0,0 3.62973,-3.72369 4.67218,-6.04819 3.35848,-7.488885 4.72407,-15.995057 4.53907,-24.200456 -0.12236,-5.427001 -1.3154,-10.997515 -3.72045,-15.854464 -2.40505,-4.856949 -6.57827,-9.317852 -10.32169,-12.529733 -6.75773,-5.79818 -12.04031,-7.910779 -20.71242,-9.930751 -7.18449,-1.673465 -14.78633,-3.136543 -22.05205,-1.861117 -8.31642,1.459864 -17.44494,4.611706 -23.0064,10.599606 -5.52739,5.951217 -10.358432,14.244307 -12.077885,22.182348 -1.257009,5.803118 0,17.813092 0,17.813092 L 86.606766,99.103617 112.82226,153.21509 Z"
       id="path1"
       sodipodi:nodetypes="ccccccaszssssscccc" /></g><g
     inkscape:groupmode="layer"
     id="layer6"
     inkscape:label="Headphones"
     style="fill:#ffffff"
     transform="translate(-74.074055,-32.19846)"><rect
       style="fill:#cccccc;stroke-width:1.2695"
       id="rect4"
       width="6.8119178"
       height="40.163486"
       x="150.17366"
       y="-3.1378434"
       transform="rotate(15.125277)" /><ellipse
       style="opacity:1;fill:#cccccc;stroke-width:1.13922"
       id="path3"
       cx="155.20905"
       cy="29.885918"
       rx="13.021026"
       ry="17.03545"
       transform="matrix(0.9406337,0.33942341,-0.29612213,0.95515009,0,0)" /></g></svg>
